# xmcd
#
# Track frame offsets:
#	150
#	11568
#	30426
#	48867
#	62881
#	77477
#	95811
#	107206
#	126064
#	144659
#	158676
#	173277
#
# Disc length: 2555 seconds
#
# Revision: 4
# Processed by: cddbd v1.5.2PL0 Copyright (c) Steve Scherf et al.
# Submitted via: audiograbber 1.83.01
#
DISCID=8e09f90c
DTITLE=Joe Nichols - Joe Nichols
DYEAR=2004
DGENRE=Country
TTITLE0=What's a Guy Gotta Do
TTITLE1=Brokenheartsville
TTITLE2=The Impossible
TTITLE3=Cool to be a Fool
TTITLE4=Tequila Makes Her Clothes Fall Off
TTITLE5=If Nobody Believed in You
TTITLE6=What's a Guy Gotta Do
TTITLE7=Brokenheartsville
TTITLE8=The Impossible
TTITLE9=Cool to be a Fool
TTITLE10=Tequila Makes Her Clothes Fall Off
TTITLE11=If Nobody Believed in You
EXTD=
EXTT0=
EXTT1=
EXTT2=
EXTT3=
EXTT4=
EXTT5=
EXTT6=
EXTT7=
EXTT8=
EXTT9=
EXTT10=
EXTT11=
PLAYORDER=
